{
	"asset":{
		"generator":"Khronos glTF Blender I/O v4.0.44",
		"version":"2.0"
	},
	"scene":0,
	"scenes":[
		{
			"name":"Scene",
			"nodes":[
				4
			]
		}
	],
	"nodes":[
		{
			"mesh":0,
			"name":"Object_4",
			"scale":[
				0.5,
				0.49999988079071045,
				0.49999988079071045
			]
		},
		{
			"children":[
				0
			],
			"name":"Sphere_1"
		},
		{
			"children":[
				1
			],
			"name":"GLTF_SceneRootNode",
			"rotation":[
				0.70710688829422,
				0,
				0,
				0.7071066498756409
			]
		},
		{
			"children":[
				2
			],
			"name":"root"
		},
		{
			"children":[
				3
			],
			"name":"Sketchfab_model",
			"rotation":[
				-0.70710688829422,
				0,
				0,
				0.7071066498756409
			]
		}
	],
	"materials":[
		{
			"name":"GLASS",
			"pbrMetallicRoughness":{
				"baseColorFactor":[
					0.9900000095367432,
					0.9900000095367432,
					0.9900000095367432,
					1
				],
				"metallicFactor":0,
				"roughnessFactor":0
			}
		}
	],
	"meshes":[
		{
			"name":"Object_0",
			"primitives":[
				{
					"attributes":{
						"POSITION":0,
						"NORMAL":1,
						"TEXCOORD_0":2
					},
					"indices":3,
					"material":0
				}
			]
		}
	],
	"accessors":[
		{
			"bufferView":0,
			"componentType":5126,
			"count":2399,
			"max":[
				1,
				2,
				1
			],
			"min":[
				-1,
				0,
				-1
			],
			"type":"VEC3"
		},
		{
			"bufferView":1,
			"componentType":5126,
			"count":2399,
			"type":"VEC3"
		},
		{
			"bufferView":2,
			"componentType":5126,
			"count":2399,
			"type":"VEC2"
		},
		{
			"bufferView":3,
			"componentType":5123,
			"count":13536,
			"type":"SCALAR"
		}
	],
	"bufferViews":[
		{
			"buffer":0,
			"byteLength":28788,
			"byteOffset":0,
			"target":34962
		},
		{
			"buffer":0,
			"byteLength":28788,
			"byteOffset":28788,
			"target":34962
		},
		{
			"buffer":0,
			"byteLength":19192,
			"byteOffset":57576,
			"target":34962
		},
		{
			"buffer":0,
			"byteLength":27072,
			"byteOffset":76768,
			"target":34963
		}
	],
	"buffers":[
		{
			"byteLength":103840,
			"uri":"scene.bin"
		}
	]
}
