{
	"asset":{
		"generator":"Khronos glTF Blender I/O v4.0.44",
		"version":"2.0"
	},
	"scene":0,
	"scenes":[
		{
			"name":"Scene",
			"nodes":[
				0,
				1,
				2,
				3,
				4,
				5,
				7,
				8,
				9,
				10,
				11,
				12
			]
		}
	],
	"nodes":[
		{
			"mesh":0,
			"name":"Cube",
			"scale":[
				0.6984071731567383,
				0.6984071731567383,
				0.6984071731567383
			],
			"translation":[
				0.0010270000202581286,
				2.0161375999450684,
				-7.108270645141602
			]
		},
		{
			"mesh":1,
			"name":"Cube.001",
			"scale":[
				0.6984071731567383,
				0.6984071731567383,
				0.6984071731567383
			],
			"translation":[
				0.005784045904874802,
				2.0250062942504883,
				-7.081431865692139
			]
		},
		{
			"mesh":2,
			"name":"Torus",
			"scale":[
				0.37057292461395264,
				0.37057292461395264,
				0.37057292461395264
			],
			"translation":[
				0,
				1.543923020362854,
				-7.114065647125244
			]
		},
		{
			"mesh":3,
			"name":"Cube.002",
			"scale":[
				0.5901888608932495,
				0.5408284068107605,
				0.5901888608932495
			],
			"translation":[
				0,
				1.128118634223938,
				-7.114065647125244
			]
		},
		{
			"mesh":4,
			"name":"Cube.003",
			"scale":[
				0.14397449791431427,
				0.6243849396705627,
				0.14397449791431427
			],
			"translation":[
				0.21841205656528473,
				0.6421943306922913,
				-7.114065647125244
			]
		},
		{
			"mesh":5,
			"name":"Cube.004",
			"scale":[
				0.9223060607910156,
				0.9223060607910156,
				0.9223060607910156
			],
			"translation":[
				0.21841205656528473,
				0.6421943306922913,
				-7.114065647125244
			]
		},
		{
			"mesh":6,
			"name":"Cube.006",
			"scale":[
				0.9292797446250916,
				0.22071847319602966,
				0.9292797446250916
			],
			"translation":[
				0,
				-0.29517871141433716,
				0
			]
		},
		{
			"children":[
				6
			],
			"mesh":7,
			"name":"Cube.005",
			"rotation":[
				-0.773980438709259,
				0.1407078206539154,
				-6.515573477372527e-05,
				0.6173781752586365
			],
			"scale":[
				0.12189312279224396,
				0.607178270816803,
				0.12202737480401993
			],
			"translation":[
				0.5225757956504822,
				1.392868995666504,
				-6.598548889160156
			]
		},
		{
			"mesh":8,
			"name":"Cube.007",
			"scale":[
				0.3855350613594055,
				0.43714892864227295,
				0.17935031652450562
			],
			"translation":[
				0,
				1.0516612529754639,
				-7.638679027557373
			]
		},
		{
			"mesh":9,
			"name":"Cylinder",
			"translation":[
				0.17407599091529846,
				1.4578386545181274,
				-7.638679027557373
			]
		},
		{
			"mesh":10,
			"name":"Cube.008",
			"scale":[
				0.03290441259741783,
				0.03290441259741783,
				0.03290441259741783
			],
			"translation":[
				0.17407602071762085,
				1.6406725645065308,
				-7.638679027557373
			]
		},
		{
			"mesh":11,
			"name":"Cylinder.001",
			"scale":[
				2.072970151901245,
				2.072970151901245,
				2.072970151901245
			],
			"translation":[
				0.3981137275695801,
				2.0161375999450684,
				-7.108270645141602
			]
		},
		{
			"mesh":12,
			"name":"Cube.010",
			"scale":[
				1,
				1.9646974802017212,
				0.4720381498336792
			],
			"translation":[
				0,
				1.5,
				-6
			]
		}
	],
	"materials":[
		{
			"doubleSided":true,
			"name":"SUIT.001",
			"pbrMetallicRoughness":{
				"baseColorFactor":[
					0.2764134109020233,
					0.6049467325210571,
					0.8000000715255737,
					1
				],
				"metallicFactor":0.125,
				"roughnessFactor":0.20000000298023224
			}
		},
		{
			"doubleSided":true,
			"name":"Material",
			"pbrMetallicRoughness":{
				"baseColorFactor":[
					0.8000000715255737,
					0.25048306584358215,
					0.07332819700241089,
					1
				],
				"metallicFactor":0.5514705777168274,
				"roughnessFactor":0.014705882407724857
			}
		},
		{
			"doubleSided":true,
			"name":"BAND",
			"pbrMetallicRoughness":{
				"baseColorFactor":[
					0.13394087553024292,
					0.21705038845539093,
					0.8000000715255737,
					1
				],
				"metallicFactor":0,
				"roughnessFactor":0.5
			}
		},
		{
			"doubleSided":true,
			"name":"Material.004",
			"pbrMetallicRoughness":{
				"baseColorFactor":[
					0.8000000715255737,
					0.37349873781204224,
					0.5898493528366089,
					1
				],
				"metallicFactor":0.20588235557079315,
				"roughnessFactor":0.30000001192092896
			}
		},
		{
			"doubleSided":true,
			"name":"Material.005",
			"pbrMetallicRoughness":{
				"baseColorFactor":[
					0.03417406231164932,
					0.0355059877038002,
					0.039681266993284225,
					1
				],
				"metallicFactor":0.22794117033481598,
				"roughnessFactor":0.05882352590560913
			}
		},
		{
			"doubleSided":true,
			"name":"Material.006",
			"pbrMetallicRoughness":{
				"baseColorFactor":[
					0.800000011920929,
					0.800000011920929,
					0.800000011920929,
					1
				],
				"metallicFactor":0.31617647409439087,
				"roughnessFactor":0.10000000149011612
			}
		},
		{
			"doubleSided":true,
			"name":"Mat\u00e9riau.001",
			"pbrMetallicRoughness":{
				"baseColorFactor":[
					0.2764134109020233,
					0.6049467325210571,
					0.8000000715255737,
					1
				],
				"metallicFactor":0.125,
				"roughnessFactor":0.20000000298023224
			}
		}
	],
	"meshes":[
		{
			"name":"Cube",
			"primitives":[
				{
					"attributes":{
						"POSITION":0,
						"NORMAL":1,
						"TEXCOORD_0":2
					},
					"indices":3,
					"material":0
				}
			]
		},
		{
			"name":"Cube.001",
			"primitives":[
				{
					"attributes":{
						"POSITION":4,
						"NORMAL":5,
						"TEXCOORD_0":6
					},
					"indices":7,
					"material":1
				}
			]
		},
		{
			"name":"Torus",
			"primitives":[
				{
					"attributes":{
						"POSITION":8,
						"NORMAL":9,
						"TEXCOORD_0":10
					},
					"indices":11,
					"material":2
				}
			]
		},
		{
			"name":"Cube.002",
			"primitives":[
				{
					"attributes":{
						"POSITION":12,
						"NORMAL":13,
						"TEXCOORD_0":14
					},
					"indices":15,
					"material":0
				}
			]
		},
		{
			"name":"Cube.003",
			"primitives":[
				{
					"attributes":{
						"POSITION":16,
						"NORMAL":17,
						"TEXCOORD_0":18
					},
					"indices":19,
					"material":0
				}
			]
		},
		{
			"name":"Cube.004",
			"primitives":[
				{
					"attributes":{
						"POSITION":20,
						"NORMAL":21,
						"TEXCOORD_0":22
					},
					"indices":23,
					"material":2
				}
			]
		},
		{
			"name":"Cube.006",
			"primitives":[
				{
					"attributes":{
						"POSITION":24,
						"NORMAL":25,
						"TEXCOORD_0":26
					},
					"indices":27,
					"material":2
				}
			]
		},
		{
			"name":"Cube.005",
			"primitives":[
				{
					"attributes":{
						"POSITION":28,
						"NORMAL":29,
						"TEXCOORD_0":30
					},
					"indices":31,
					"material":0
				}
			]
		},
		{
			"name":"Cube.007",
			"primitives":[
				{
					"attributes":{
						"POSITION":32,
						"NORMAL":33,
						"TEXCOORD_0":34
					},
					"indices":35,
					"material":3
				}
			]
		},
		{
			"name":"Cylinder",
			"primitives":[
				{
					"attributes":{
						"POSITION":36,
						"NORMAL":37,
						"TEXCOORD_0":38
					},
					"indices":39,
					"material":4
				}
			]
		},
		{
			"name":"Cube.008",
			"primitives":[
				{
					"attributes":{
						"POSITION":40,
						"NORMAL":41,
						"TEXCOORD_0":42
					},
					"indices":43,
					"material":5
				}
			]
		},
		{
			"name":"Cylinder.001",
			"primitives":[
				{
					"attributes":{
						"POSITION":44,
						"NORMAL":45,
						"TEXCOORD_0":46
					},
					"indices":47,
					"material":4
				}
			]
		},
		{
			"name":"Cube.011",
			"primitives":[
				{
					"attributes":{
						"POSITION":48,
						"NORMAL":49,
						"TEXCOORD_0":50
					},
					"indices":51,
					"material":6
				}
			]
		}
	],
	"accessors":[
		{
			"bufferView":0,
			"componentType":5126,
			"count":33,
			"max":[
				0.8395062685012817,
				0.8395062685012817,
				0.6095679402351379
			],
			"min":[
				-0.8395062685012817,
				-0.7813772559165955,
				-0.8395062685012817
			],
			"type":"VEC3"
		},
		{
			"bufferView":1,
			"componentType":5126,
			"count":33,
			"type":"VEC3"
		},
		{
			"bufferView":2,
			"componentType":5126,
			"count":33,
			"type":"VEC2"
		},
		{
			"bufferView":3,
			"componentType":5123,
			"count":120,
			"type":"SCALAR"
		},
		{
			"bufferView":4,
			"componentType":5126,
			"count":9,
			"max":[
				0.6095679402351379,
				0.6095679402351379,
				0.8395062685012817
			],
			"min":[
				-0.6095678806304932,
				-0.5568175911903381,
				0.5000000596046448
			],
			"type":"VEC3"
		},
		{
			"bufferView":5,
			"componentType":5126,
			"count":9,
			"type":"VEC3"
		},
		{
			"bufferView":6,
			"componentType":5126,
			"count":9,
			"type":"VEC2"
		},
		{
			"bufferView":7,
			"componentType":5123,
			"count":24,
			"type":"SCALAR"
		},
		{
			"bufferView":8,
			"componentType":5126,
			"count":637,
			"max":[
				1.25,
				0.25,
				1.25
			],
			"min":[
				-1.25,
				-0.25,
				-1.25
			],
			"type":"VEC3"
		},
		{
			"bufferView":9,
			"componentType":5126,
			"count":637,
			"type":"VEC3"
		},
		{
			"bufferView":10,
			"componentType":5126,
			"count":637,
			"type":"VEC2"
		},
		{
			"bufferView":11,
			"componentType":5123,
			"count":3456,
			"type":"SCALAR"
		},
		{
			"bufferView":12,
			"componentType":5126,
			"count":19,
			"max":[
				1,
				1,
				1
			],
			"min":[
				-1,
				-1,
				-1
			],
			"type":"VEC3"
		},
		{
			"bufferView":13,
			"componentType":5126,
			"count":19,
			"type":"VEC3"
		},
		{
			"bufferView":14,
			"componentType":5126,
			"count":19,
			"type":"VEC2"
		},
		{
			"bufferView":15,
			"componentType":5123,
			"count":60,
			"type":"SCALAR"
		},
		{
			"bufferView":16,
			"componentType":5126,
			"count":203,
			"max":[
				1,
				0.956327497959137,
				3.1831209659576416
			],
			"min":[
				-1,
				-0.9968569278717041,
				-0.9166667461395264
			],
			"type":"VEC3"
		},
		{
			"bufferView":17,
			"componentType":5126,
			"count":203,
			"type":"VEC3"
		},
		{
			"bufferView":18,
			"componentType":5126,
			"count":203,
			"type":"VEC2"
		},
		{
			"bufferView":19,
			"componentType":5123,
			"count":864,
			"type":"SCALAR"
		},
		{
			"bufferView":20,
			"componentType":5126,
			"count":21,
			"max":[
				0.1319766342639923,
				-0.25956881046295166,
				0.1319766342639923
			],
			"min":[
				-0.13197661936283112,
				-0.35123637318611145,
				-0.1319766342639923
			],
			"type":"VEC3"
		},
		{
			"bufferView":21,
			"componentType":5126,
			"count":21,
			"type":"VEC3"
		},
		{
			"bufferView":22,
			"componentType":5126,
			"count":21,
			"type":"VEC2"
		},
		{
			"bufferView":23,
			"componentType":5123,
			"count":48,
			"type":"SCALAR"
		},
		{
			"bufferView":24,
			"componentType":5126,
			"count":18,
			"max":[
				1.0781545639038086,
				0.29755187034606934,
				1.0781545639038086
			],
			"min":[
				-1.0781545639038086,
				-0.2574893832206726,
				-1.0781545639038086
			],
			"type":"VEC3"
		},
		{
			"bufferView":25,
			"componentType":5126,
			"count":18,
			"type":"VEC3"
		},
		{
			"bufferView":26,
			"componentType":5126,
			"count":18,
			"type":"VEC2"
		},
		{
			"bufferView":27,
			"componentType":5123,
			"count":48,
			"type":"SCALAR"
		},
		{
			"bufferView":28,
			"componentType":5126,
			"count":75,
			"max":[
				1.0781545639038086,
				0.9555696249008179,
				1.0781545639038086
			],
			"min":[
				-1.0781545639038086,
				-0.8839367628097534,
				-1.0781545639038086
			],
			"type":"VEC3"
		},
		{
			"bufferView":29,
			"componentType":5126,
			"count":75,
			"type":"VEC3"
		},
		{
			"bufferView":30,
			"componentType":5126,
			"count":75,
			"type":"VEC2"
		},
		{
			"bufferView":31,
			"componentType":5123,
			"count":288,
			"type":"SCALAR"
		},
		{
			"bufferView":32,
			"componentType":5126,
			"count":39,
			"max":[
				1,
				1,
				1
			],
			"min":[
				-1,
				-1,
				-1
			],
			"type":"VEC3"
		},
		{
			"bufferView":33,
			"componentType":5126,
			"count":39,
			"type":"VEC3"
		},
		{
			"bufferView":34,
			"componentType":5126,
			"count":39,
			"type":"VEC2"
		},
		{
			"bufferView":35,
			"componentType":5123,
			"count":144,
			"type":"SCALAR"
		},
		{
			"bufferView":36,
			"componentType":5126,
			"count":904,
			"max":[
				0.07218754291534424,
				0.18283352255821228,
				0.07218754291534424
			],
			"min":[
				-0.07218754291534424,
				-0.07218754291534424,
				-0.07218754291534424
			],
			"type":"VEC3"
		},
		{
			"bufferView":37,
			"componentType":5126,
			"count":904,
			"type":"VEC3"
		},
		{
			"bufferView":38,
			"componentType":5126,
			"count":904,
			"type":"VEC2"
		},
		{
			"bufferView":39,
			"componentType":5123,
			"count":2868,
			"type":"SCALAR"
		},
		{
			"bufferView":40,
			"componentType":5126,
			"count":14,
			"max":[
				1,
				1,
				1
			],
			"min":[
				-1,
				-1,
				-1
			],
			"type":"VEC3"
		},
		{
			"bufferView":41,
			"componentType":5126,
			"count":14,
			"type":"VEC3"
		},
		{
			"bufferView":42,
			"componentType":5126,
			"count":14,
			"type":"VEC2"
		},
		{
			"bufferView":43,
			"componentType":5123,
			"count":36,
			"type":"SCALAR"
		},
		{
			"bufferView":44,
			"componentType":5126,
			"count":769,
			"max":[
				0.1006234660744667,
				0.07509803771972656,
				0.07509803771972656
			],
			"min":[
				-0.07509804517030716,
				-0.07509803771972656,
				-0.07509803771972656
			],
			"type":"VEC3"
		},
		{
			"bufferView":45,
			"componentType":5126,
			"count":769,
			"type":"VEC3"
		},
		{
			"bufferView":46,
			"componentType":5126,
			"count":769,
			"type":"VEC2"
		},
		{
			"bufferView":47,
			"componentType":5123,
			"count":2868,
			"type":"SCALAR"
		},
		{
			"bufferView":48,
			"componentType":5126,
			"count":24,
			"max":[
				3.497511863708496,
				0.1781444549560547,
				0.4236946105957031
			],
			"min":[
				-3.497511863708496,
				-0.1781444549560547,
				-0.4236946105957031
			],
			"type":"VEC3"
		},
		{
			"bufferView":49,
			"componentType":5126,
			"count":24,
			"type":"VEC3"
		},
		{
			"bufferView":50,
			"componentType":5126,
			"count":24,
			"type":"VEC2"
		},
		{
			"bufferView":51,
			"componentType":5123,
			"count":36,
			"type":"SCALAR"
		}
	],
	"bufferViews":[
		{
			"buffer":0,
			"byteLength":396,
			"byteOffset":0,
			"target":34962
		},
		{
			"buffer":0,
			"byteLength":396,
			"byteOffset":396,
			"target":34962
		},
		{
			"buffer":0,
			"byteLength":264,
			"byteOffset":792,
			"target":34962
		},
		{
			"buffer":0,
			"byteLength":240,
			"byteOffset":1056,
			"target":34963
		},
		{
			"buffer":0,
			"byteLength":108,
			"byteOffset":1296,
			"target":34962
		},
		{
			"buffer":0,
			"byteLength":108,
			"byteOffset":1404,
			"target":34962
		},
		{
			"buffer":0,
			"byteLength":72,
			"byteOffset":1512,
			"target":34962
		},
		{
			"buffer":0,
			"byteLength":48,
			"byteOffset":1584,
			"target":34963
		},
		{
			"buffer":0,
			"byteLength":7644,
			"byteOffset":1632,
			"target":34962
		},
		{
			"buffer":0,
			"byteLength":7644,
			"byteOffset":9276,
			"target":34962
		},
		{
			"buffer":0,
			"byteLength":5096,
			"byteOffset":16920,
			"target":34962
		},
		{
			"buffer":0,
			"byteLength":6912,
			"byteOffset":22016,
			"target":34963
		},
		{
			"buffer":0,
			"byteLength":228,
			"byteOffset":28928,
			"target":34962
		},
		{
			"buffer":0,
			"byteLength":228,
			"byteOffset":29156,
			"target":34962
		},
		{
			"buffer":0,
			"byteLength":152,
			"byteOffset":29384,
			"target":34962
		},
		{
			"buffer":0,
			"byteLength":120,
			"byteOffset":29536,
			"target":34963
		},
		{
			"buffer":0,
			"byteLength":2436,
			"byteOffset":29656,
			"target":34962
		},
		{
			"buffer":0,
			"byteLength":2436,
			"byteOffset":32092,
			"target":34962
		},
		{
			"buffer":0,
			"byteLength":1624,
			"byteOffset":34528,
			"target":34962
		},
		{
			"buffer":0,
			"byteLength":1728,
			"byteOffset":36152,
			"target":34963
		},
		{
			"buffer":0,
			"byteLength":252,
			"byteOffset":37880,
			"target":34962
		},
		{
			"buffer":0,
			"byteLength":252,
			"byteOffset":38132,
			"target":34962
		},
		{
			"buffer":0,
			"byteLength":168,
			"byteOffset":38384,
			"target":34962
		},
		{
			"buffer":0,
			"byteLength":96,
			"byteOffset":38552,
			"target":34963
		},
		{
			"buffer":0,
			"byteLength":216,
			"byteOffset":38648,
			"target":34962
		},
		{
			"buffer":0,
			"byteLength":216,
			"byteOffset":38864,
			"target":34962
		},
		{
			"buffer":0,
			"byteLength":144,
			"byteOffset":39080,
			"target":34962
		},
		{
			"buffer":0,
			"byteLength":96,
			"byteOffset":39224,
			"target":34963
		},
		{
			"buffer":0,
			"byteLength":900,
			"byteOffset":39320,
			"target":34962
		},
		{
			"buffer":0,
			"byteLength":900,
			"byteOffset":40220,
			"target":34962
		},
		{
			"buffer":0,
			"byteLength":600,
			"byteOffset":41120,
			"target":34962
		},
		{
			"buffer":0,
			"byteLength":576,
			"byteOffset":41720,
			"target":34963
		},
		{
			"buffer":0,
			"byteLength":468,
			"byteOffset":42296,
			"target":34962
		},
		{
			"buffer":0,
			"byteLength":468,
			"byteOffset":42764,
			"target":34962
		},
		{
			"buffer":0,
			"byteLength":312,
			"byteOffset":43232,
			"target":34962
		},
		{
			"buffer":0,
			"byteLength":288,
			"byteOffset":43544,
			"target":34963
		},
		{
			"buffer":0,
			"byteLength":10848,
			"byteOffset":43832,
			"target":34962
		},
		{
			"buffer":0,
			"byteLength":10848,
			"byteOffset":54680,
			"target":34962
		},
		{
			"buffer":0,
			"byteLength":7232,
			"byteOffset":65528,
			"target":34962
		},
		{
			"buffer":0,
			"byteLength":5736,
			"byteOffset":72760,
			"target":34963
		},
		{
			"buffer":0,
			"byteLength":168,
			"byteOffset":78496,
			"target":34962
		},
		{
			"buffer":0,
			"byteLength":168,
			"byteOffset":78664,
			"target":34962
		},
		{
			"buffer":0,
			"byteLength":112,
			"byteOffset":78832,
			"target":34962
		},
		{
			"buffer":0,
			"byteLength":72,
			"byteOffset":78944,
			"target":34963
		},
		{
			"buffer":0,
			"byteLength":9228,
			"byteOffset":79016,
			"target":34962
		},
		{
			"buffer":0,
			"byteLength":9228,
			"byteOffset":88244,
			"target":34962
		},
		{
			"buffer":0,
			"byteLength":6152,
			"byteOffset":97472,
			"target":34962
		},
		{
			"buffer":0,
			"byteLength":5736,
			"byteOffset":103624,
			"target":34963
		},
		{
			"buffer":0,
			"byteLength":288,
			"byteOffset":109360,
			"target":34962
		},
		{
			"buffer":0,
			"byteLength":288,
			"byteOffset":109648,
			"target":34962
		},
		{
			"buffer":0,
			"byteLength":192,
			"byteOffset":109936,
			"target":34962
		},
		{
			"buffer":0,
			"byteLength":72,
			"byteOffset":110128,
			"target":34963
		}
	],
	"buffers":[
		{
			"byteLength":110200,
			"uri":"avatar.bin"
		}
	]
}
