{
	"asset":{
		"generator":"Khronos glTF Blender I/O v4.0.44",
		"version":"2.0"
	},
	"scene":0,
	"scenes":[
		{
			"name":"Scene",
			"nodes":[
				0,
				1,
				2,
				3,
				4,
				5,
				6,
				7,
				8,
				10,
				11,
				12,
				13,
				14,
				15
			]
		}
	],
	"nodes":[
		{
			"mesh":0,
			"name":"Cube.009",
			"scale":[
				1.939742922782898,
				0.2799748480319977,
				1.8531086444854736
			],
			"translation":[
				0,
				0.9800000190734863,
				13.800000190734863
			]
		},
		{
			"mesh":1,
			"name":"Cube.011",
			"scale":[
				0.5559788346290588,
				0.9557670950889587,
				0.8042843341827393
			],
			"translation":[
				-15.300000190734863,
				0.9434407949447632,
				13.800000190734863
			]
		},
		{
			"mesh":2,
			"name":"Cube.012",
			"scale":[
				0.5559788346290588,
				0.9557670950889587,
				0.8042843341827393
			],
			"translation":[
				15.300000190734863,
				0.9434407949447632,
				13.800000190734863
			]
		},
		{
			"mesh":3,
			"name":"Cube",
			"scale":[
				0.6984071731567383,
				0.6984071731567383,
				0.6984071731567383
			],
			"translation":[
				0.0010270000202581286,
				2.0161375999450684,
				-7.108270645141602
			]
		},
		{
			"mesh":4,
			"name":"Cube.001",
			"scale":[
				0.6984071731567383,
				0.6984071731567383,
				0.6984071731567383
			],
			"translation":[
				0.005784045904874802,
				2.0250062942504883,
				-7.081431865692139
			]
		},
		{
			"mesh":5,
			"name":"Torus",
			"scale":[
				0.37057292461395264,
				0.37057292461395264,
				0.37057292461395264
			],
			"translation":[
				0,
				1.543923020362854,
				-7.114065647125244
			]
		},
		{
			"mesh":6,
			"name":"Cube.002",
			"scale":[
				0.5901888608932495,
				0.5408284068107605,
				0.5901888608932495
			],
			"translation":[
				0,
				1.128118634223938,
				-7.114065647125244
			]
		},
		{
			"mesh":7,
			"name":"Cube.003",
			"scale":[
				0.14397449791431427,
				0.6243849396705627,
				0.14397449791431427
			],
			"translation":[
				0.21841205656528473,
				0.6421939730644226,
				-7.114065647125244
			]
		},
		{
			"mesh":8,
			"name":"Cube.004",
			"scale":[
				0.9223060607910156,
				0.9223060607910156,
				0.9223060607910156
			],
			"translation":[
				0.21841205656528473,
				0.6421943306922913,
				-7.114065647125244
			]
		},
		{
			"mesh":9,
			"name":"Cube.006",
			"scale":[
				0.9292797446250916,
				0.22071847319602966,
				0.9292797446250916
			],
			"translation":[
				0,
				-0.29517871141433716,
				0
			]
		},
		{
			"children":[
				9
			],
			"mesh":10,
			"name":"Cube.005",
			"rotation":[
				-0.773980438709259,
				0.1407078206539154,
				-6.515573477372527e-05,
				0.6173781752586365
			],
			"scale":[
				0.12189312279224396,
				0.607178270816803,
				0.12202737480401993
			],
			"translation":[
				0.5225757956504822,
				1.392868995666504,
				-6.598548889160156
			]
		},
		{
			"mesh":11,
			"name":"Cube.007",
			"scale":[
				0.3855350613594055,
				0.43714892864227295,
				0.17935031652450562
			],
			"translation":[
				0,
				1.0516612529754639,
				-7.638679027557373
			]
		},
		{
			"mesh":12,
			"name":"Cylinder",
			"translation":[
				0.17407599091529846,
				1.4578386545181274,
				-7.638679027557373
			]
		},
		{
			"mesh":13,
			"name":"Cube.008",
			"scale":[
				0.03290441259741783,
				0.03290441259741783,
				0.03290441259741783
			],
			"translation":[
				0.17407602071762085,
				1.6406725645065308,
				-7.638679027557373
			]
		},
		{
			"mesh":14,
			"name":"Cylinder.001",
			"scale":[
				2.072970151901245,
				2.072970151901245,
				2.072970151901245
			],
			"translation":[
				0.3981137275695801,
				2.0161375999450684,
				-7.108270645141602
			]
		},
		{
			"mesh":15,
			"name":"Cube.010",
			"scale":[
				1,
				1.9646974802017212,
				0.4720381498336792
			],
			"translation":[
				0,
				1.5,
				-6
			]
		}
	],
	"materials":[
		{
			"doubleSided":true,
			"name":"Mat\u00e9riau.002",
			"pbrMetallicRoughness":{
				"baseColorFactor":[
					0.7999992966651917,
					0,
					0.013687873259186745,
					1
				],
				"metallicFactor":0.125,
				"roughnessFactor":0.20000000298023224
			}
		},
		{
			"doubleSided":true,
			"name":"SUIT.001",
			"pbrMetallicRoughness":{
				"baseColorFactor":[
					0.2764134109020233,
					0.6049467325210571,
					0.8000000715255737,
					1
				],
				"metallicFactor":0.125,
				"roughnessFactor":0.20000000298023224
			}
		},
		{
			"doubleSided":true,
			"name":"Material",
			"pbrMetallicRoughness":{
				"baseColorFactor":[
					0.8000000715255737,
					0.25048306584358215,
					0.07332819700241089,
					1
				],
				"metallicFactor":0.5514705777168274,
				"roughnessFactor":0.014705882407724857
			}
		},
		{
			"doubleSided":true,
			"name":"BAND",
			"pbrMetallicRoughness":{
				"baseColorFactor":[
					0.13394087553024292,
					0.21705038845539093,
					0.8000000715255737,
					1
				],
				"metallicFactor":0,
				"roughnessFactor":0.5
			}
		},
		{
			"doubleSided":true,
			"name":"Material.004",
			"pbrMetallicRoughness":{
				"baseColorFactor":[
					0.8000000715255737,
					0.37349873781204224,
					0.5898493528366089,
					1
				],
				"metallicFactor":0.20588235557079315,
				"roughnessFactor":0.30000001192092896
			}
		},
		{
			"doubleSided":true,
			"name":"Material.005",
			"pbrMetallicRoughness":{
				"baseColorFactor":[
					0.03417406231164932,
					0.0355059877038002,
					0.039681266993284225,
					1
				],
				"metallicFactor":0.22794117033481598,
				"roughnessFactor":0.05882352590560913
			}
		},
		{
			"doubleSided":true,
			"name":"Material.006",
			"pbrMetallicRoughness":{
				"baseColorFactor":[
					0.800000011920929,
					0.800000011920929,
					0.800000011920929,
					1
				],
				"metallicFactor":0.31617647409439087,
				"roughnessFactor":0.10000000149011612
			}
		},
		{
			"doubleSided":true,
			"name":"Mat\u00e9riau.001",
			"pbrMetallicRoughness":{
				"baseColorFactor":[
					0.2764134109020233,
					0.6049467325210571,
					0.8000000715255737,
					1
				],
				"metallicFactor":0.125,
				"roughnessFactor":0.20000000298023224
			}
		}
	],
	"meshes":[
		{
			"name":"Cube.009",
			"primitives":[
				{
					"attributes":{
						"POSITION":0,
						"NORMAL":1,
						"TEXCOORD_0":2
					},
					"indices":3,
					"material":0
				}
			]
		},
		{
			"name":"Cube.012",
			"primitives":[
				{
					"attributes":{
						"POSITION":4,
						"NORMAL":5,
						"TEXCOORD_0":6
					},
					"indices":3
				}
			]
		},
		{
			"name":"Cube.013",
			"primitives":[
				{
					"attributes":{
						"POSITION":7,
						"NORMAL":8,
						"TEXCOORD_0":9
					},
					"indices":3
				}
			]
		},
		{
			"name":"Cube",
			"primitives":[
				{
					"attributes":{
						"POSITION":10,
						"NORMAL":11,
						"TEXCOORD_0":12
					},
					"indices":13,
					"material":1
				}
			]
		},
		{
			"name":"Cube.001",
			"primitives":[
				{
					"attributes":{
						"POSITION":14,
						"NORMAL":15,
						"TEXCOORD_0":16
					},
					"indices":17,
					"material":2
				}
			]
		},
		{
			"name":"Torus",
			"primitives":[
				{
					"attributes":{
						"POSITION":18,
						"NORMAL":19,
						"TEXCOORD_0":20
					},
					"indices":21,
					"material":3
				}
			]
		},
		{
			"name":"Cube.002",
			"primitives":[
				{
					"attributes":{
						"POSITION":22,
						"NORMAL":23,
						"TEXCOORD_0":24
					},
					"indices":25,
					"material":1
				}
			]
		},
		{
			"name":"Cube.003",
			"primitives":[
				{
					"attributes":{
						"POSITION":26,
						"NORMAL":27,
						"TEXCOORD_0":28
					},
					"indices":29,
					"material":1
				}
			]
		},
		{
			"name":"Cube.004",
			"primitives":[
				{
					"attributes":{
						"POSITION":30,
						"NORMAL":31,
						"TEXCOORD_0":32
					},
					"indices":33,
					"material":3
				}
			]
		},
		{
			"name":"Cube.006",
			"primitives":[
				{
					"attributes":{
						"POSITION":34,
						"NORMAL":35,
						"TEXCOORD_0":36
					},
					"indices":37,
					"material":3
				}
			]
		},
		{
			"name":"Cube.005",
			"primitives":[
				{
					"attributes":{
						"POSITION":38,
						"NORMAL":39,
						"TEXCOORD_0":40
					},
					"indices":41,
					"material":1
				}
			]
		},
		{
			"name":"Cube.007",
			"primitives":[
				{
					"attributes":{
						"POSITION":42,
						"NORMAL":43,
						"TEXCOORD_0":44
					},
					"indices":45,
					"material":4
				}
			]
		},
		{
			"name":"Cylinder",
			"primitives":[
				{
					"attributes":{
						"POSITION":46,
						"NORMAL":47,
						"TEXCOORD_0":48
					},
					"indices":49,
					"material":5
				}
			]
		},
		{
			"name":"Cube.008",
			"primitives":[
				{
					"attributes":{
						"POSITION":50,
						"NORMAL":51,
						"TEXCOORD_0":52
					},
					"indices":53,
					"material":6
				}
			]
		},
		{
			"name":"Cylinder.001",
			"primitives":[
				{
					"attributes":{
						"POSITION":54,
						"NORMAL":55,
						"TEXCOORD_0":56
					},
					"indices":57,
					"material":5
				}
			]
		},
		{
			"name":"Cube.011",
			"primitives":[
				{
					"attributes":{
						"POSITION":58,
						"NORMAL":59,
						"TEXCOORD_0":60
					},
					"indices":3,
					"material":7
				}
			]
		}
	],
	"accessors":[
		{
			"bufferView":0,
			"componentType":5126,
			"count":24,
			"max":[
				7.732983589172363,
				0.5357625484466553,
				10.792675018310547
			],
			"min":[
				-7.732983589172363,
				-0.5357625484466553,
				-10.792675018310547
			],
			"type":"VEC3"
		},
		{
			"bufferView":1,
			"componentType":5126,
			"count":24,
			"type":"VEC3"
		},
		{
			"bufferView":2,
			"componentType":5126,
			"count":24,
			"type":"VEC2"
		},
		{
			"bufferView":3,
			"componentType":5123,
			"count":36,
			"type":"SCALAR"
		},
		{
			"bufferView":4,
			"componentType":5126,
			"count":24,
			"max":[
				0.5395889282226562,
				1.1303277015686035,
				24.8668270111084
			],
			"min":[
				-0.5395889282226562,
				-1.1303277015686035,
				-24.8668270111084
			],
			"type":"VEC3"
		},
		{
			"bufferView":5,
			"componentType":5126,
			"count":24,
			"type":"VEC3"
		},
		{
			"bufferView":6,
			"componentType":5126,
			"count":24,
			"type":"VEC2"
		},
		{
			"bufferView":7,
			"componentType":5126,
			"count":24,
			"max":[
				0.5395889282226562,
				1.1303277015686035,
				24.8668270111084
			],
			"min":[
				-0.5395889282226562,
				-1.1303277015686035,
				-24.8668270111084
			],
			"type":"VEC3"
		},
		{
			"bufferView":8,
			"componentType":5126,
			"count":24,
			"type":"VEC3"
		},
		{
			"bufferView":9,
			"componentType":5126,
			"count":24,
			"type":"VEC2"
		},
		{
			"bufferView":10,
			"componentType":5126,
			"count":33,
			"max":[
				0.8395062685012817,
				0.8395062685012817,
				0.6095679402351379
			],
			"min":[
				-0.8395062685012817,
				-0.7813772559165955,
				-0.8395062685012817
			],
			"type":"VEC3"
		},
		{
			"bufferView":11,
			"componentType":5126,
			"count":33,
			"type":"VEC3"
		},
		{
			"bufferView":12,
			"componentType":5126,
			"count":33,
			"type":"VEC2"
		},
		{
			"bufferView":13,
			"componentType":5123,
			"count":120,
			"type":"SCALAR"
		},
		{
			"bufferView":14,
			"componentType":5126,
			"count":9,
			"max":[
				0.6095679402351379,
				0.6095679402351379,
				0.8395062685012817
			],
			"min":[
				-0.6095678806304932,
				-0.5568175911903381,
				0.5000000596046448
			],
			"type":"VEC3"
		},
		{
			"bufferView":15,
			"componentType":5126,
			"count":9,
			"type":"VEC3"
		},
		{
			"bufferView":16,
			"componentType":5126,
			"count":9,
			"type":"VEC2"
		},
		{
			"bufferView":17,
			"componentType":5123,
			"count":24,
			"type":"SCALAR"
		},
		{
			"bufferView":18,
			"componentType":5126,
			"count":637,
			"max":[
				1.25,
				0.25,
				1.25
			],
			"min":[
				-1.25,
				-0.25,
				-1.25
			],
			"type":"VEC3"
		},
		{
			"bufferView":19,
			"componentType":5126,
			"count":637,
			"type":"VEC3"
		},
		{
			"bufferView":20,
			"componentType":5126,
			"count":637,
			"type":"VEC2"
		},
		{
			"bufferView":21,
			"componentType":5123,
			"count":3456,
			"type":"SCALAR"
		},
		{
			"bufferView":22,
			"componentType":5126,
			"count":19,
			"max":[
				1,
				1,
				1
			],
			"min":[
				-1,
				-1,
				-1
			],
			"type":"VEC3"
		},
		{
			"bufferView":23,
			"componentType":5126,
			"count":19,
			"type":"VEC3"
		},
		{
			"bufferView":24,
			"componentType":5126,
			"count":19,
			"type":"VEC2"
		},
		{
			"bufferView":25,
			"componentType":5123,
			"count":60,
			"type":"SCALAR"
		},
		{
			"bufferView":26,
			"componentType":5126,
			"count":203,
			"max":[
				1,
				0.956327497959137,
				3.1831209659576416
			],
			"min":[
				-1,
				-0.9968569278717041,
				-0.9166667461395264
			],
			"type":"VEC3"
		},
		{
			"bufferView":27,
			"componentType":5126,
			"count":203,
			"type":"VEC3"
		},
		{
			"bufferView":28,
			"componentType":5126,
			"count":203,
			"type":"VEC2"
		},
		{
			"bufferView":29,
			"componentType":5123,
			"count":864,
			"type":"SCALAR"
		},
		{
			"bufferView":30,
			"componentType":5126,
			"count":21,
			"max":[
				0.1319766342639923,
				-0.25956881046295166,
				0.1319766342639923
			],
			"min":[
				-0.13197661936283112,
				-0.35123637318611145,
				-0.1319766342639923
			],
			"type":"VEC3"
		},
		{
			"bufferView":31,
			"componentType":5126,
			"count":21,
			"type":"VEC3"
		},
		{
			"bufferView":32,
			"componentType":5126,
			"count":21,
			"type":"VEC2"
		},
		{
			"bufferView":33,
			"componentType":5123,
			"count":48,
			"type":"SCALAR"
		},
		{
			"bufferView":34,
			"componentType":5126,
			"count":18,
			"max":[
				1.0781545639038086,
				0.29755187034606934,
				1.0781545639038086
			],
			"min":[
				-1.0781545639038086,
				-0.2574893832206726,
				-1.0781545639038086
			],
			"type":"VEC3"
		},
		{
			"bufferView":35,
			"componentType":5126,
			"count":18,
			"type":"VEC3"
		},
		{
			"bufferView":36,
			"componentType":5126,
			"count":18,
			"type":"VEC2"
		},
		{
			"bufferView":37,
			"componentType":5123,
			"count":48,
			"type":"SCALAR"
		},
		{
			"bufferView":38,
			"componentType":5126,
			"count":75,
			"max":[
				1.0781545639038086,
				0.9555696249008179,
				1.0781545639038086
			],
			"min":[
				-1.0781545639038086,
				-0.8839367628097534,
				-1.0781545639038086
			],
			"type":"VEC3"
		},
		{
			"bufferView":39,
			"componentType":5126,
			"count":75,
			"type":"VEC3"
		},
		{
			"bufferView":40,
			"componentType":5126,
			"count":75,
			"type":"VEC2"
		},
		{
			"bufferView":41,
			"componentType":5123,
			"count":288,
			"type":"SCALAR"
		},
		{
			"bufferView":42,
			"componentType":5126,
			"count":39,
			"max":[
				1,
				1,
				1
			],
			"min":[
				-1,
				-1,
				-1
			],
			"type":"VEC3"
		},
		{
			"bufferView":43,
			"componentType":5126,
			"count":39,
			"type":"VEC3"
		},
		{
			"bufferView":44,
			"componentType":5126,
			"count":39,
			"type":"VEC2"
		},
		{
			"bufferView":45,
			"componentType":5123,
			"count":144,
			"type":"SCALAR"
		},
		{
			"bufferView":46,
			"componentType":5126,
			"count":904,
			"max":[
				0.07218754291534424,
				0.18283352255821228,
				0.07218754291534424
			],
			"min":[
				-0.07218754291534424,
				-0.07218754291534424,
				-0.07218754291534424
			],
			"type":"VEC3"
		},
		{
			"bufferView":47,
			"componentType":5126,
			"count":904,
			"type":"VEC3"
		},
		{
			"bufferView":48,
			"componentType":5126,
			"count":904,
			"type":"VEC2"
		},
		{
			"bufferView":49,
			"componentType":5123,
			"count":2868,
			"type":"SCALAR"
		},
		{
			"bufferView":50,
			"componentType":5126,
			"count":14,
			"max":[
				1,
				1,
				1
			],
			"min":[
				-1,
				-1,
				-1
			],
			"type":"VEC3"
		},
		{
			"bufferView":51,
			"componentType":5126,
			"count":14,
			"type":"VEC3"
		},
		{
			"bufferView":52,
			"componentType":5126,
			"count":14,
			"type":"VEC2"
		},
		{
			"bufferView":53,
			"componentType":5123,
			"count":36,
			"type":"SCALAR"
		},
		{
			"bufferView":54,
			"componentType":5126,
			"count":769,
			"max":[
				0.1006234660744667,
				0.07509803771972656,
				0.07509803771972656
			],
			"min":[
				-0.07509804517030716,
				-0.07509803771972656,
				-0.07509803771972656
			],
			"type":"VEC3"
		},
		{
			"bufferView":55,
			"componentType":5126,
			"count":769,
			"type":"VEC3"
		},
		{
			"bufferView":56,
			"componentType":5126,
			"count":769,
			"type":"VEC2"
		},
		{
			"bufferView":57,
			"componentType":5123,
			"count":2868,
			"type":"SCALAR"
		},
		{
			"bufferView":58,
			"componentType":5126,
			"count":24,
			"max":[
				3.497511863708496,
				0.1781444549560547,
				0.4236946105957031
			],
			"min":[
				-3.497511863708496,
				-0.1781444549560547,
				-0.4236946105957031
			],
			"type":"VEC3"
		},
		{
			"bufferView":59,
			"componentType":5126,
			"count":24,
			"type":"VEC3"
		},
		{
			"bufferView":60,
			"componentType":5126,
			"count":24,
			"type":"VEC2"
		}
	],
	"bufferViews":[
		{
			"buffer":0,
			"byteLength":288,
			"byteOffset":0,
			"target":34962
		},
		{
			"buffer":0,
			"byteLength":288,
			"byteOffset":288,
			"target":34962
		},
		{
			"buffer":0,
			"byteLength":192,
			"byteOffset":576,
			"target":34962
		},
		{
			"buffer":0,
			"byteLength":72,
			"byteOffset":768,
			"target":34963
		},
		{
			"buffer":0,
			"byteLength":288,
			"byteOffset":840,
			"target":34962
		},
		{
			"buffer":0,
			"byteLength":288,
			"byteOffset":1128,
			"target":34962
		},
		{
			"buffer":0,
			"byteLength":192,
			"byteOffset":1416,
			"target":34962
		},
		{
			"buffer":0,
			"byteLength":288,
			"byteOffset":1608,
			"target":34962
		},
		{
			"buffer":0,
			"byteLength":288,
			"byteOffset":1896,
			"target":34962
		},
		{
			"buffer":0,
			"byteLength":192,
			"byteOffset":2184,
			"target":34962
		},
		{
			"buffer":0,
			"byteLength":396,
			"byteOffset":2376,
			"target":34962
		},
		{
			"buffer":0,
			"byteLength":396,
			"byteOffset":2772,
			"target":34962
		},
		{
			"buffer":0,
			"byteLength":264,
			"byteOffset":3168,
			"target":34962
		},
		{
			"buffer":0,
			"byteLength":240,
			"byteOffset":3432,
			"target":34963
		},
		{
			"buffer":0,
			"byteLength":108,
			"byteOffset":3672,
			"target":34962
		},
		{
			"buffer":0,
			"byteLength":108,
			"byteOffset":3780,
			"target":34962
		},
		{
			"buffer":0,
			"byteLength":72,
			"byteOffset":3888,
			"target":34962
		},
		{
			"buffer":0,
			"byteLength":48,
			"byteOffset":3960,
			"target":34963
		},
		{
			"buffer":0,
			"byteLength":7644,
			"byteOffset":4008,
			"target":34962
		},
		{
			"buffer":0,
			"byteLength":7644,
			"byteOffset":11652,
			"target":34962
		},
		{
			"buffer":0,
			"byteLength":5096,
			"byteOffset":19296,
			"target":34962
		},
		{
			"buffer":0,
			"byteLength":6912,
			"byteOffset":24392,
			"target":34963
		},
		{
			"buffer":0,
			"byteLength":228,
			"byteOffset":31304,
			"target":34962
		},
		{
			"buffer":0,
			"byteLength":228,
			"byteOffset":31532,
			"target":34962
		},
		{
			"buffer":0,
			"byteLength":152,
			"byteOffset":31760,
			"target":34962
		},
		{
			"buffer":0,
			"byteLength":120,
			"byteOffset":31912,
			"target":34963
		},
		{
			"buffer":0,
			"byteLength":2436,
			"byteOffset":32032,
			"target":34962
		},
		{
			"buffer":0,
			"byteLength":2436,
			"byteOffset":34468,
			"target":34962
		},
		{
			"buffer":0,
			"byteLength":1624,
			"byteOffset":36904,
			"target":34962
		},
		{
			"buffer":0,
			"byteLength":1728,
			"byteOffset":38528,
			"target":34963
		},
		{
			"buffer":0,
			"byteLength":252,
			"byteOffset":40256,
			"target":34962
		},
		{
			"buffer":0,
			"byteLength":252,
			"byteOffset":40508,
			"target":34962
		},
		{
			"buffer":0,
			"byteLength":168,
			"byteOffset":40760,
			"target":34962
		},
		{
			"buffer":0,
			"byteLength":96,
			"byteOffset":40928,
			"target":34963
		},
		{
			"buffer":0,
			"byteLength":216,
			"byteOffset":41024,
			"target":34962
		},
		{
			"buffer":0,
			"byteLength":216,
			"byteOffset":41240,
			"target":34962
		},
		{
			"buffer":0,
			"byteLength":144,
			"byteOffset":41456,
			"target":34962
		},
		{
			"buffer":0,
			"byteLength":96,
			"byteOffset":41600,
			"target":34963
		},
		{
			"buffer":0,
			"byteLength":900,
			"byteOffset":41696,
			"target":34962
		},
		{
			"buffer":0,
			"byteLength":900,
			"byteOffset":42596,
			"target":34962
		},
		{
			"buffer":0,
			"byteLength":600,
			"byteOffset":43496,
			"target":34962
		},
		{
			"buffer":0,
			"byteLength":576,
			"byteOffset":44096,
			"target":34963
		},
		{
			"buffer":0,
			"byteLength":468,
			"byteOffset":44672,
			"target":34962
		},
		{
			"buffer":0,
			"byteLength":468,
			"byteOffset":45140,
			"target":34962
		},
		{
			"buffer":0,
			"byteLength":312,
			"byteOffset":45608,
			"target":34962
		},
		{
			"buffer":0,
			"byteLength":288,
			"byteOffset":45920,
			"target":34963
		},
		{
			"buffer":0,
			"byteLength":10848,
			"byteOffset":46208,
			"target":34962
		},
		{
			"buffer":0,
			"byteLength":10848,
			"byteOffset":57056,
			"target":34962
		},
		{
			"buffer":0,
			"byteLength":7232,
			"byteOffset":67904,
			"target":34962
		},
		{
			"buffer":0,
			"byteLength":5736,
			"byteOffset":75136,
			"target":34963
		},
		{
			"buffer":0,
			"byteLength":168,
			"byteOffset":80872,
			"target":34962
		},
		{
			"buffer":0,
			"byteLength":168,
			"byteOffset":81040,
			"target":34962
		},
		{
			"buffer":0,
			"byteLength":112,
			"byteOffset":81208,
			"target":34962
		},
		{
			"buffer":0,
			"byteLength":72,
			"byteOffset":81320,
			"target":34963
		},
		{
			"buffer":0,
			"byteLength":9228,
			"byteOffset":81392,
			"target":34962
		},
		{
			"buffer":0,
			"byteLength":9228,
			"byteOffset":90620,
			"target":34962
		},
		{
			"buffer":0,
			"byteLength":6152,
			"byteOffset":99848,
			"target":34962
		},
		{
			"buffer":0,
			"byteLength":5736,
			"byteOffset":106000,
			"target":34963
		},
		{
			"buffer":0,
			"byteLength":288,
			"byteOffset":111736,
			"target":34962
		},
		{
			"buffer":0,
			"byteLength":288,
			"byteOffset":112024,
			"target":34962
		},
		{
			"buffer":0,
			"byteLength":192,
			"byteOffset":112312,
			"target":34962
		}
	],
	"buffers":[
		{
			"byteLength":112504,
			"uri":"boardplusplayer.bin"
		}
	]
}
