{
	"asset":{
		"generator":"Khronos glTF Blender I/O v4.0.44",
		"version":"2.0"
	},
	"scene":0,
	"scenes":[
		{
			"name":"Scene",
			"nodes":[
				0,
				1,
				2,
				3,
				4,
				6,
				7,
				8,
				9,
				10,
				11,
				12
			]
		}
	],
	"nodes":[
		{
			"mesh":0,
			"name":"Cube",
			"scale":[
				0.6984071731567383,
				0.6984071731567383,
				0.6984071731567383
			],
			"translation":[
				0.0010270000202581286,
				2.0161375999450684,
				-1.1068792343139648
			]
		},
		{
			"mesh":1,
			"name":"Cube.001",
			"scale":[
				0.6984071731567383,
				0.6984071731567383,
				0.6984071731567383
			],
			"translation":[
				0.005784045904874802,
				2.0250062942504883,
				-1.080040454864502
			]
		},
		{
			"mesh":2,
			"name":"Cube.002",
			"scale":[
				0.5901888608932495,
				0.5408284068107605,
				0.5901888608932495
			],
			"translation":[
				0,
				1.128118634223938,
				-1.1126742362976074
			]
		},
		{
			"mesh":3,
			"name":"Cube.003",
			"scale":[
				0.14397449791431427,
				0.6243849396705627,
				0.14397449791431427
			],
			"translation":[
				0.21841205656528473,
				0.6421943306922913,
				-1.1126742362976074
			]
		},
		{
			"mesh":4,
			"name":"Cube.004",
			"scale":[
				0.9223060607910156,
				0.9223060607910156,
				0.9223060607910156
			],
			"translation":[
				0.21841205656528473,
				0.6421943306922913,
				-1.1126742362976074
			]
		},
		{
			"mesh":5,
			"name":"Cube.006",
			"scale":[
				0.9292796850204468,
				0.22071847319602966,
				0.9292796850204468
			],
			"translation":[
				0,
				-0.29517868161201477,
				0
			]
		},
		{
			"children":[
				5
			],
			"mesh":6,
			"name":"Cube.005",
			"rotation":[
				-0.773980438709259,
				0.1407078057527542,
				-6.51412847219035e-05,
				0.6173780560493469
			],
			"scale":[
				0.12189312279224396,
				0.6071783900260925,
				0.12202740460634232
			],
			"translation":[
				0.5225757956504822,
				1.392868995666504,
				-0.5971574783325195
			]
		},
		{
			"mesh":7,
			"name":"Cube.007",
			"scale":[
				0.3855350613594055,
				0.43714892864227295,
				0.17935031652450562
			],
			"translation":[
				0,
				1.0516612529754639,
				-1.6372876167297363
			]
		},
		{
			"mesh":8,
			"name":"Cylinder",
			"translation":[
				0.17407599091529846,
				1.4578386545181274,
				-1.6372876167297363
			]
		},
		{
			"mesh":9,
			"name":"Cube.008",
			"scale":[
				0.03290441259741783,
				0.03290441259741783,
				0.03290441259741783
			],
			"translation":[
				0.17407602071762085,
				1.6406725645065308,
				-1.6372876167297363
			]
		},
		{
			"mesh":10,
			"name":"Cylinder.001",
			"scale":[
				2.072970151901245,
				2.072970151901245,
				2.072970151901245
			],
			"translation":[
				0.3981137275695801,
				2.0161375999450684,
				-1.1068792343139648
			]
		},
		{
			"mesh":11,
			"name":"Cube.010",
			"scale":[
				1,
				1.9646974802017212,
				0.4720381498336792
			],
			"translation":[
				0,
				1.5,
				0
			]
		},
		{
			"mesh":12,
			"name":"Torus",
			"scale":[
				0.37057292461395264,
				0.37057292461395264,
				0.37057292461395264
			],
			"translation":[
				0,
				1.543923020362854,
				-1.1126742362976074
			]
		}
	],
	"materials":[
		{
			"doubleSided":true,
			"name":"SUIT.001",
			"pbrMetallicRoughness":{
				"baseColorFactor":[
					0.2764134109020233,
					0.6049467325210571,
					0.8000000715255737,
					1
				],
				"metallicFactor":0.125,
				"roughnessFactor":0.20000000298023224
			}
		},
		{
			"doubleSided":true,
			"name":"Material.001",
			"pbrMetallicRoughness":{
				"baseColorFactor":[
					0.8000000715255737,
					0.25048306584358215,
					0.07332819700241089,
					1
				],
				"metallicFactor":0.5514705777168274,
				"roughnessFactor":0.014705882407724857
			}
		},
		{
			"doubleSided":true,
			"name":"BAND",
			"pbrMetallicRoughness":{
				"baseColorFactor":[
					0.13394087553024292,
					0.21705038845539093,
					0.8000000715255737,
					1
				],
				"metallicFactor":0,
				"roughnessFactor":0.5
			}
		},
		{
			"doubleSided":true,
			"name":"Material.004",
			"pbrMetallicRoughness":{
				"baseColorFactor":[
					0.8000000715255737,
					0.37349873781204224,
					0.5898493528366089,
					1
				],
				"metallicFactor":0.20588235557079315,
				"roughnessFactor":0.30000001192092896
			}
		},
		{
			"doubleSided":true,
			"name":"Material.005",
			"pbrMetallicRoughness":{
				"baseColorFactor":[
					0.03417406231164932,
					0.0355059877038002,
					0.039681266993284225,
					1
				],
				"metallicFactor":0.22794117033481598,
				"roughnessFactor":0.05882352590560913
			}
		},
		{
			"doubleSided":true,
			"name":"Material.006",
			"pbrMetallicRoughness":{
				"baseColorFactor":[
					0.800000011920929,
					0.800000011920929,
					0.800000011920929,
					1
				],
				"metallicFactor":0.31617647409439087,
				"roughnessFactor":0.10000000149011612
			}
		},
		{
			"doubleSided":true,
			"name":"Material.002",
			"pbrMetallicRoughness":{
				"baseColorFactor":[
					0.03417406231164932,
					0.0355059877038002,
					0.039681266993284225,
					1
				],
				"metallicFactor":0.22794117033481598,
				"roughnessFactor":0.05882352590560913
			}
		},
		{
			"doubleSided":true,
			"name":"Mat\u00e9riau.001",
			"pbrMetallicRoughness":{
				"baseColorFactor":[
					0.2764134109020233,
					0.6049467325210571,
					0.8000000715255737,
					1
				],
				"metallicFactor":0.125,
				"roughnessFactor":0.20000000298023224
			}
		},
		{
			"doubleSided":true,
			"name":"BAND.001",
			"pbrMetallicRoughness":{
				"baseColorFactor":[
					0.13394087553024292,
					0.21705038845539093,
					0.8000000715255737,
					1
				],
				"metallicFactor":0,
				"roughnessFactor":0.5
			}
		}
	],
	"meshes":[
		{
			"name":"Cube.001",
			"primitives":[
				{
					"attributes":{
						"POSITION":0,
						"NORMAL":1,
						"TEXCOORD_0":2
					},
					"indices":3,
					"material":0
				}
			]
		},
		{
			"name":"Maillage",
			"primitives":[
				{
					"attributes":{
						"POSITION":4,
						"NORMAL":5,
						"TEXCOORD_0":6
					},
					"indices":7,
					"material":1
				}
			]
		},
		{
			"name":"Maillage.001",
			"primitives":[
				{
					"attributes":{
						"POSITION":8,
						"NORMAL":9,
						"TEXCOORD_0":10
					},
					"indices":11,
					"material":0
				}
			]
		},
		{
			"name":"Cube.003",
			"primitives":[
				{
					"attributes":{
						"POSITION":12,
						"NORMAL":13,
						"TEXCOORD_0":14
					},
					"indices":15,
					"material":0
				}
			]
		},
		{
			"name":"Maillage.002",
			"primitives":[
				{
					"attributes":{
						"POSITION":16,
						"NORMAL":17,
						"TEXCOORD_0":18
					},
					"indices":19,
					"material":2
				}
			]
		},
		{
			"name":"Cube.006",
			"primitives":[
				{
					"attributes":{
						"POSITION":20,
						"NORMAL":21,
						"TEXCOORD_0":22
					},
					"indices":23,
					"material":2
				}
			]
		},
		{
			"name":"Cube.005",
			"primitives":[
				{
					"attributes":{
						"POSITION":24,
						"NORMAL":25,
						"TEXCOORD_0":26
					},
					"indices":27,
					"material":0
				}
			]
		},
		{
			"name":"Maillage.003",
			"primitives":[
				{
					"attributes":{
						"POSITION":28,
						"NORMAL":29,
						"TEXCOORD_0":30
					},
					"indices":31,
					"material":3
				}
			]
		},
		{
			"name":"Cylinder",
			"primitives":[
				{
					"attributes":{
						"POSITION":32,
						"NORMAL":33,
						"TEXCOORD_0":34
					},
					"indices":35,
					"material":4
				}
			]
		},
		{
			"name":"Maillage.004",
			"primitives":[
				{
					"attributes":{
						"POSITION":36,
						"NORMAL":37,
						"TEXCOORD_0":38
					},
					"indices":39,
					"material":5
				}
			]
		},
		{
			"name":"Cylinder.001",
			"primitives":[
				{
					"attributes":{
						"POSITION":40,
						"NORMAL":41,
						"TEXCOORD_0":42
					},
					"indices":43,
					"material":6
				}
			]
		},
		{
			"name":"Cube.011",
			"primitives":[
				{
					"attributes":{
						"POSITION":44,
						"NORMAL":45,
						"TEXCOORD_0":46
					},
					"indices":47,
					"material":7
				}
			]
		},
		{
			"name":"Torus",
			"primitives":[
				{
					"attributes":{
						"POSITION":48,
						"NORMAL":49,
						"TEXCOORD_0":50
					},
					"indices":51,
					"material":8
				}
			]
		}
	],
	"accessors":[
		{
			"bufferView":0,
			"componentType":5126,
			"count":2754,
			"max":[
				0.699588418006897,
				0.699588418006897,
				0.5730454325675964
			],
			"min":[
				-0.699588418006897,
				-0.6672946214675903,
				-0.699588418006897
			],
			"type":"VEC3"
		},
		{
			"bufferView":1,
			"componentType":5126,
			"count":2754,
			"type":"VEC3"
		},
		{
			"bufferView":2,
			"componentType":5126,
			"count":2754,
			"type":"VEC2"
		},
		{
			"bufferView":3,
			"componentType":5123,
			"count":15744,
			"type":"SCALAR"
		},
		{
			"bufferView":4,
			"componentType":5126,
			"count":1069,
			"max":[
				0.5298792719841003,
				0.5294811725616455,
				0.699588418006897
			],
			"min":[
				-0.5298792719841003,
				-0.4949195981025696,
				0.469355970621109
			],
			"type":"VEC3"
		},
		{
			"bufferView":5,
			"componentType":5126,
			"count":1069,
			"type":"VEC3"
		},
		{
			"bufferView":6,
			"componentType":5126,
			"count":1069,
			"type":"VEC2"
		},
		{
			"bufferView":7,
			"componentType":5123,
			"count":6144,
			"type":"SCALAR"
		},
		{
			"bufferView":8,
			"componentType":5126,
			"count":705,
			"max":[
				0.8909395337104797,
				0.8928046226501465,
				0.8909395933151245
			],
			"min":[
				-0.8909395337104797,
				-0.9467018246650696,
				-0.8909395337104797
			],
			"type":"VEC3"
		},
		{
			"bufferView":9,
			"componentType":5126,
			"count":705,
			"type":"VEC3"
		},
		{
			"bufferView":10,
			"componentType":5126,
			"count":705,
			"type":"VEC2"
		},
		{
			"bufferView":11,
			"componentType":5123,
			"count":3840,
			"type":"SCALAR"
		},
		{
			"bufferView":12,
			"componentType":5126,
			"count":10464,
			"max":[
				0.975337028503418,
				0.918254017829895,
				3.074824333190918
			],
			"min":[
				-4.00937557220459,
				-0.9932709336280823,
				-0.8333335518836975
			],
			"type":"VEC3"
		},
		{
			"bufferView":13,
			"componentType":5126,
			"count":10464,
			"type":"VEC3"
		},
		{
			"bufferView":14,
			"componentType":5126,
			"count":10464,
			"type":"VEC2"
		},
		{
			"bufferView":15,
			"componentType":5123,
			"count":55296,
			"type":"SCALAR"
		},
		{
			"bufferView":16,
			"componentType":5126,
			"count":4451,
			"max":[
				0.14592188596725464,
				-0.2633882761001587,
				0.14592188596725464
			],
			"min":[
				-0.6195434331893921,
				-0.3474169373512268,
				-0.14592188596725464
			],
			"type":"VEC3"
		},
		{
			"bufferView":17,
			"componentType":5126,
			"count":4451,
			"type":"VEC3"
		},
		{
			"bufferView":18,
			"componentType":5126,
			"count":4451,
			"type":"VEC2"
		},
		{
			"bufferView":19,
			"componentType":5123,
			"count":24576,
			"type":"SCALAR"
		},
		{
			"bufferView":20,
			"componentType":5126,
			"count":4441,
			"max":[
				1.0215529203414917,
				2.428399085998535,
				1.0215529203414917
			],
			"min":[
				-10.498091697692871,
				-0.23481018841266632,
				-2.7324271202087402
			],
			"type":"VEC3"
		},
		{
			"bufferView":21,
			"componentType":5126,
			"count":4441,
			"type":"VEC3"
		},
		{
			"bufferView":22,
			"componentType":5126,
			"count":4441,
			"type":"VEC2"
		},
		{
			"bufferView":23,
			"componentType":5123,
			"count":24576,
			"type":"SCALAR"
		},
		{
			"bufferView":24,
			"componentType":5126,
			"count":6758,
			"max":[
				0.9801406264305115,
				1.2178970575332642,
				0.9801406264305115
			],
			"min":[
				-10.106488227844238,
				-0.7827534079551697,
				-2.4906363487243652
			],
			"type":"VEC3"
		},
		{
			"bufferView":25,
			"componentType":5126,
			"count":6758,
			"type":"VEC3"
		},
		{
			"bufferView":26,
			"componentType":5126,
			"count":6758,
			"type":"VEC2"
		},
		{
			"bufferView":27,
			"componentType":5123,
			"count":36864,
			"type":"SCALAR"
		},
		{
			"bufferView":28,
			"componentType":5126,
			"count":1649,
			"max":[
				1,
				1,
				1
			],
			"min":[
				-1,
				-1,
				-1
			],
			"type":"VEC3"
		},
		{
			"bufferView":29,
			"componentType":5126,
			"count":1649,
			"type":"VEC3"
		},
		{
			"bufferView":30,
			"componentType":5126,
			"count":1649,
			"type":"VEC2"
		},
		{
			"bufferView":31,
			"componentType":5123,
			"count":9216,
			"type":"SCALAR"
		},
		{
			"bufferView":32,
			"componentType":5126,
			"count":911,
			"max":[
				0.07218754291534424,
				0.18283352255821228,
				0.07218754291534424
			],
			"min":[
				-0.07218754291534424,
				-0.07218754291534424,
				-0.07218754291534424
			],
			"type":"VEC3"
		},
		{
			"bufferView":33,
			"componentType":5126,
			"count":911,
			"type":"VEC3"
		},
		{
			"bufferView":34,
			"componentType":5126,
			"count":911,
			"type":"VEC2"
		},
		{
			"bufferView":35,
			"componentType":5123,
			"count":2868,
			"type":"SCALAR"
		},
		{
			"bufferView":36,
			"componentType":5126,
			"count":441,
			"max":[
				0.8395062685012817,
				0.8395062685012817,
				0.8395062685012817
			],
			"min":[
				-0.8395062685012817,
				-0.8395062685012817,
				-0.8395062685012817
			],
			"type":"VEC3"
		},
		{
			"bufferView":37,
			"componentType":5126,
			"count":441,
			"type":"VEC3"
		},
		{
			"bufferView":38,
			"componentType":5126,
			"count":441,
			"type":"VEC2"
		},
		{
			"bufferView":39,
			"componentType":5123,
			"count":2304,
			"type":"SCALAR"
		},
		{
			"bufferView":40,
			"componentType":5126,
			"count":17645,
			"max":[
				0.10060479491949081,
				0.07461704313755035,
				0.07461704313755035
			],
			"min":[
				-0.4847049415111542,
				-0.07461704313755035,
				-0.07461704313755035
			],
			"type":"VEC3"
		},
		{
			"bufferView":41,
			"componentType":5126,
			"count":17645,
			"type":"VEC3"
		},
		{
			"bufferView":42,
			"componentType":5126,
			"count":17645,
			"type":"VEC2"
		},
		{
			"bufferView":43,
			"componentType":5123,
			"count":89088,
			"type":"SCALAR"
		},
		{
			"bufferView":44,
			"componentType":5126,
			"count":24,
			"max":[
				3.497511863708496,
				0.1781444549560547,
				0.4236946105957031
			],
			"min":[
				-3.497511863708496,
				-0.1781444549560547,
				-0.4236946105957031
			],
			"type":"VEC3"
		},
		{
			"bufferView":45,
			"componentType":5126,
			"count":24,
			"type":"VEC3"
		},
		{
			"bufferView":46,
			"componentType":5126,
			"count":24,
			"type":"VEC2"
		},
		{
			"bufferView":47,
			"componentType":5123,
			"count":36,
			"type":"SCALAR"
		},
		{
			"bufferView":48,
			"componentType":5126,
			"count":637,
			"max":[
				1.25,
				0.25,
				1.25
			],
			"min":[
				-1.25,
				-0.25,
				-1.25
			],
			"type":"VEC3"
		},
		{
			"bufferView":49,
			"componentType":5126,
			"count":637,
			"type":"VEC3"
		},
		{
			"bufferView":50,
			"componentType":5126,
			"count":637,
			"type":"VEC2"
		},
		{
			"bufferView":51,
			"componentType":5123,
			"count":3456,
			"type":"SCALAR"
		}
	],
	"bufferViews":[
		{
			"buffer":0,
			"byteLength":33048,
			"byteOffset":0,
			"target":34962
		},
		{
			"buffer":0,
			"byteLength":33048,
			"byteOffset":33048,
			"target":34962
		},
		{
			"buffer":0,
			"byteLength":22032,
			"byteOffset":66096,
			"target":34962
		},
		{
			"buffer":0,
			"byteLength":31488,
			"byteOffset":88128,
			"target":34963
		},
		{
			"buffer":0,
			"byteLength":12828,
			"byteOffset":119616,
			"target":34962
		},
		{
			"buffer":0,
			"byteLength":12828,
			"byteOffset":132444,
			"target":34962
		},
		{
			"buffer":0,
			"byteLength":8552,
			"byteOffset":145272,
			"target":34962
		},
		{
			"buffer":0,
			"byteLength":12288,
			"byteOffset":153824,
			"target":34963
		},
		{
			"buffer":0,
			"byteLength":8460,
			"byteOffset":166112,
			"target":34962
		},
		{
			"buffer":0,
			"byteLength":8460,
			"byteOffset":174572,
			"target":34962
		},
		{
			"buffer":0,
			"byteLength":5640,
			"byteOffset":183032,
			"target":34962
		},
		{
			"buffer":0,
			"byteLength":7680,
			"byteOffset":188672,
			"target":34963
		},
		{
			"buffer":0,
			"byteLength":125568,
			"byteOffset":196352,
			"target":34962
		},
		{
			"buffer":0,
			"byteLength":125568,
			"byteOffset":321920,
			"target":34962
		},
		{
			"buffer":0,
			"byteLength":83712,
			"byteOffset":447488,
			"target":34962
		},
		{
			"buffer":0,
			"byteLength":110592,
			"byteOffset":531200,
			"target":34963
		},
		{
			"buffer":0,
			"byteLength":53412,
			"byteOffset":641792,
			"target":34962
		},
		{
			"buffer":0,
			"byteLength":53412,
			"byteOffset":695204,
			"target":34962
		},
		{
			"buffer":0,
			"byteLength":35608,
			"byteOffset":748616,
			"target":34962
		},
		{
			"buffer":0,
			"byteLength":49152,
			"byteOffset":784224,
			"target":34963
		},
		{
			"buffer":0,
			"byteLength":53292,
			"byteOffset":833376,
			"target":34962
		},
		{
			"buffer":0,
			"byteLength":53292,
			"byteOffset":886668,
			"target":34962
		},
		{
			"buffer":0,
			"byteLength":35528,
			"byteOffset":939960,
			"target":34962
		},
		{
			"buffer":0,
			"byteLength":49152,
			"byteOffset":975488,
			"target":34963
		},
		{
			"buffer":0,
			"byteLength":81096,
			"byteOffset":1024640,
			"target":34962
		},
		{
			"buffer":0,
			"byteLength":81096,
			"byteOffset":1105736,
			"target":34962
		},
		{
			"buffer":0,
			"byteLength":54064,
			"byteOffset":1186832,
			"target":34962
		},
		{
			"buffer":0,
			"byteLength":73728,
			"byteOffset":1240896,
			"target":34963
		},
		{
			"buffer":0,
			"byteLength":19788,
			"byteOffset":1314624,
			"target":34962
		},
		{
			"buffer":0,
			"byteLength":19788,
			"byteOffset":1334412,
			"target":34962
		},
		{
			"buffer":0,
			"byteLength":13192,
			"byteOffset":1354200,
			"target":34962
		},
		{
			"buffer":0,
			"byteLength":18432,
			"byteOffset":1367392,
			"target":34963
		},
		{
			"buffer":0,
			"byteLength":10932,
			"byteOffset":1385824,
			"target":34962
		},
		{
			"buffer":0,
			"byteLength":10932,
			"byteOffset":1396756,
			"target":34962
		},
		{
			"buffer":0,
			"byteLength":7288,
			"byteOffset":1407688,
			"target":34962
		},
		{
			"buffer":0,
			"byteLength":5736,
			"byteOffset":1414976,
			"target":34963
		},
		{
			"buffer":0,
			"byteLength":5292,
			"byteOffset":1420712,
			"target":34962
		},
		{
			"buffer":0,
			"byteLength":5292,
			"byteOffset":1426004,
			"target":34962
		},
		{
			"buffer":0,
			"byteLength":3528,
			"byteOffset":1431296,
			"target":34962
		},
		{
			"buffer":0,
			"byteLength":4608,
			"byteOffset":1434824,
			"target":34963
		},
		{
			"buffer":0,
			"byteLength":211740,
			"byteOffset":1439432,
			"target":34962
		},
		{
			"buffer":0,
			"byteLength":211740,
			"byteOffset":1651172,
			"target":34962
		},
		{
			"buffer":0,
			"byteLength":141160,
			"byteOffset":1862912,
			"target":34962
		},
		{
			"buffer":0,
			"byteLength":178176,
			"byteOffset":2004072,
			"target":34963
		},
		{
			"buffer":0,
			"byteLength":288,
			"byteOffset":2182248,
			"target":34962
		},
		{
			"buffer":0,
			"byteLength":288,
			"byteOffset":2182536,
			"target":34962
		},
		{
			"buffer":0,
			"byteLength":192,
			"byteOffset":2182824,
			"target":34962
		},
		{
			"buffer":0,
			"byteLength":72,
			"byteOffset":2183016,
			"target":34963
		},
		{
			"buffer":0,
			"byteLength":7644,
			"byteOffset":2183088,
			"target":34962
		},
		{
			"buffer":0,
			"byteLength":7644,
			"byteOffset":2190732,
			"target":34962
		},
		{
			"buffer":0,
			"byteLength":5096,
			"byteOffset":2198376,
			"target":34962
		},
		{
			"buffer":0,
			"byteLength":6912,
			"byteOffset":2203472,
			"target":34963
		}
	],
	"buffers":[
		{
			"byteLength":2210384,
			"uri":"playertwo.bin"
		}
	]
}
